<!DOCTYPE svg PUBLIC "-//W3C//DTD SVG 20010904//EN" "http://www.w3.org/TR/2001/REC-SVG-20010904/DTD/svg10.dtd">
<svg version="1.0" xmlns="http://www.w3.org/2000/svg" width="357px" height="356px" viewBox="0 0 3570 3560" preserveAspectRatio="xMidYMid meet">
<g id="layer1" fill="#bc79a2" stroke="none">
 <path d="M1952 3443 c3 -63 5 -69 30 -81 16 -7 52 -17 80 -22 167 -30 271 -65 433 -146 325 -161 585 -432 738 -769 33 -71 63 -143 68 -160 36 -135 59 -232 59 -254 0 -15 7 -37 16 -49 13 -19 24 -22 85 -22 l69 0 0 33 c-1 146 -49 359 -115 502 -170 375 -438 667 -780 853 -220 119 -422 182 -587 182 l-99 0 3 -67z"/>
 </g>
<g id="layer2" fill="#4daadc" stroke="none">
 <path d="M3362 1518 c-6 -7 -15 -38 -21 -68 -10 -56 -47 -183 -74 -255 -31 -83 -135 -273 -192 -350 -120 -163 -320 -346 -490 -447 -127 -76 -333 -158 -445 -178 -114 -20 -166 -33 -177 -42 -8 -7 -13 -37 -13 -81 l0 -70 78 7 c254 20 317 35 509 126 207 99 360 208 524 377 280 287 458 661 469 986 0 13 -157 8 -168 -5z"/>
 </g>
<g id="layer3" fill="#f2b933" stroke="none">
 <path d="M34 1498 c3 -18 10 -73 15 -123 11 -103 42 -205 104 -337 209 -448 540 -757 1004 -938 102 -40 127 -45 336 -67 l57 -6 0 76 c0 92 -6 98 -123 122 -347 71 -697 300 -924 605 -125 167 -235 404 -268 578 -22 115 -29 122 -126 122 l-81 0 6 -32z"/>
 </g>
<g id="layer4" fill="#53a746" stroke="none">
 <path d="M1310 3490 c-512 -143 -932 -500 -1154 -982 -82 -176 -102 -259 -122 -505 l-6 -73 70 0 c84 0 98 10 108 78 70 496 405 953 869 1182 130 65 306 130 348 130 11 0 43 7 73 16 61 18 67 28 62 115 l-3 54 -90 2 c-61 1 -111 -4 -155 -17z"/>
 </g>
<g id="layer5" fill="#c33235" stroke="none">
 <path d="M1354 2320 c-84 -41 -119 -72 -157 -144 -22 -40 -22 -48 -22 -446 l0 -405 26 -55 c36 -74 77 -116 146 -148 l58 -27 444 -3 c323 -2 447 1 457 9 18 15 20 189 2 207 -9 9 -118 12 -429 12 l-417 0 -31 26 -31 26 0 346 c0 314 2 349 18 368 34 43 44 44 469 44 305 0 412 3 421 12 16 16 16 190 0 206 -9 9 -121 12 -443 12 l-430 -1 -81 -39z"/>
 </g>

</svg>